CD_DA

CATALOG "0602517642256"

// Track 1
TRACK AUDIO
NO COPY
NO PRE_EMPHASIS
TWO_CHANNEL_AUDIO
ISRC "USUM70839873"
FILE "data.wav" 0 06:16:45


// Track 2
TRACK AUDIO
NO COPY
NO PRE_EMPHASIS
TWO_CHANNEL_AUDIO
ISRC "USUM70839874"
FILE "data.wav" 06:16:45 03:56:32
START 00:01:04


// Track 3
TRACK AUDIO
NO COPY
NO PRE_EMPHASIS
TWO_CHANNEL_AUDIO
ISRC "USUM70839875"
FILE "data.wav" 10:13:02 04:37:05
START 00:01:58


// Track 4
TRACK AUDIO
NO COPY
NO PRE_EMPHASIS
TWO_CHANNEL_AUDIO
ISRC "USUM70839876"
FILE "data.wav" 14:50:07 02:28:35
START 00:00:10


// Track 5
TRACK AUDIO
NO COPY
NO PRE_EMPHASIS
TWO_CHANNEL_AUDIO
ISRC "USUM70839877"
FILE "data.wav" 17:18:42 02:24:39
START 00:02:05


// Track 6
TRACK AUDIO
NO COPY
NO PRE_EMPHASIS
TWO_CHANNEL_AUDIO
ISRC "USUM70839878"
FILE "data.wav" 19:43:06 04:42:01
START 00:00:04


// Track 7
TRACK AUDIO
NO COPY
NO PRE_EMPHASIS
TWO_CHANNEL_AUDIO
ISRC "USUM70839879"
FILE "data.wav" 24:25:07 04:30:68
START 00:01:34


// Track 8
TRACK AUDIO
NO COPY
NO PRE_EMPHASIS
TWO_CHANNEL_AUDIO
ISRC "USUM70839880"
FILE "data.wav" 28:56:00 03:42:11
START 00:00:09


// Track 9
TRACK AUDIO
NO COPY
NO PRE_EMPHASIS
TWO_CHANNEL_AUDIO
ISRC "USUM70839881"
FILE "data.wav" 32:38:11 03:23:47
START 00:02:34


// Track 10
TRACK AUDIO
NO COPY
NO PRE_EMPHASIS
TWO_CHANNEL_AUDIO
ISRC "USUM70839882"
FILE "data.wav" 36:01:58 04:06:47
START 00:00:21


// Track 11
TRACK AUDIO
NO COPY
NO PRE_EMPHASIS
TWO_CHANNEL_AUDIO
ISRC "USUM70839883"
FILE "data.wav" 40:08:30 03:51:21
START 00:00:23


// Track 12
TRACK AUDIO
NO COPY
NO PRE_EMPHASIS
TWO_CHANNEL_AUDIO
ISRC "USUM70839884"
FILE "data.wav" 43:59:51 04:36:12
START 00:00:51


// Track 13
TRACK AUDIO
NO COPY
NO PRE_EMPHASIS
TWO_CHANNEL_AUDIO
ISRC "USUM70839885"
FILE "data.wav" 48:35:63 04:17:71
START 00:01:08

